<svg height="240" width="160" xmlns="http://www.w3.org/2000/svg" xmlns:xlink="http://www.w3.org/1999/xlink"><linearGradient id="a" gradientUnits="userSpaceOnUse" x1="79.9414" x2="79.9414" y1="8.8838" y2="24.501"><stop offset="0" stop-color="#f3f4f5"/><stop offset=".3145" stop-color="#e6e7e8"/><stop offset=".9005" stop-color="#c5c4c4"/><stop offset=".9939" stop-color="#bfbebe"/></linearGradient><g fill-opacity=".5"><path d="m62.409 225.258c0 .804-.279 1.456-.838 1.961-.614.551-1.471.825-2.57.825-1.015 0-1.83-.195-2.444-.588l.35-1.26c.663.392 1.391.588 2.184.588.569 0 1.012-.128 1.33-.385s.476-.6.476-1.029c0-.383-.131-.704-.392-.966-.261-.261-.695-.504-1.302-.728-1.652-.616-2.478-1.517-2.478-2.702 0-.775.292-1.409.875-1.904.583-.494 1.355-.742 2.317-.742.859 0 1.573.149 2.142.448l-.379 1.231c-.534-.289-1.138-.434-1.812-.434-.534 0-.951.131-1.251.392-.253.233-.379.519-.379.854 0 .373.145.682.434.924.252.225.709.467 1.372.729.812.326 1.409.709 1.792 1.147.381.441.573.986.573 1.639z"/><path d="m69.829 227.904h-1.33l-.084-1.036h-.028c-.476.794-1.195 1.19-2.156 1.19-.672 0-1.208-.21-1.61-.63-.476-.514-.714-1.288-.714-2.324v-4.004h1.512v3.752c0 1.307.448 1.96 1.344 1.96.672 0 1.139-.327 1.4-.98.065-.168.098-.359.098-.574v-4.157h1.512v4.844c-.001.643.018 1.297.056 1.959z"/><path d="m78.172 224.418c0 1.158-.315 2.072-.943 2.744-.563.598-1.263.896-2.098.896-.901 0-1.548-.322-1.943-.966v3.569h-1.512v-7.325c0-.727-.019-1.473-.056-2.236h1.33l.084 1.078h.028c.504-.812 1.27-1.219 2.296-1.219.803 0 1.472.317 2.009.952.537.636.805 1.471.805 2.507zm-1.54.057c0-.663-.149-1.209-.448-1.639-.327-.447-.765-.672-1.316-.672-.374 0-.712.124-1.015.371s-.502.572-.595.973c-.047.188-.07.341-.07.463v1.134c0 .494.152.912.455 1.253s.698.511 1.183.511c.569 0 1.013-.219 1.33-.658.317-.44.476-1.018.476-1.736z"/><path d="m86.068 224.418c0 1.158-.314 2.072-.943 2.744-.563.598-1.263.896-2.098.896-.901 0-1.549-.322-1.943-.966v3.569h-1.512v-7.325c0-.727-.019-1.473-.056-2.236h1.33l.084 1.078h.028c.504-.812 1.27-1.219 2.296-1.219.803 0 1.473.317 2.01.952.536.636.804 1.471.804 2.507zm-1.54.057c0-.663-.149-1.209-.448-1.639-.326-.447-.766-.672-1.316-.672-.373 0-.711.124-1.015.371s-.502.572-.595.973c-.047.188-.07.341-.07.463v1.134c0 .494.152.912.455 1.253s.697.511 1.184.511c.568 0 1.012-.219 1.33-.658.316-.44.475-1.018.475-1.736z"/><path d="m93.754 224.446c0 1.046-.299 1.904-.896 2.576-.625.69-1.455 1.036-2.492 1.036-.998 0-1.794-.331-2.387-.994-.592-.663-.889-1.498-.889-2.506 0-1.055.306-1.918.917-2.59.611-.673 1.435-1.009 2.472-1.009.998 0 1.801.332 2.407.994.579.646.868 1.476.868 2.493zm-1.568.035c0-.624-.135-1.158-.406-1.605-.316-.54-.77-.81-1.357-.81-.607 0-1.068.27-1.386.81-.271.447-.406.991-.406 1.634 0 .623.136 1.158.406 1.604.326.54.784.81 1.372.81.578 0 1.031-.274 1.357-.823.28-.456.42-.997.42-1.62z"/><path d="m98.793 222.431c-.148-.028-.307-.042-.475-.042-.533 0-.943.2-1.232.602-.252.354-.379.803-.379 1.344v3.57h-1.512v-4.662c0-.784-.014-1.498-.041-2.142h1.315l.056 1.302h.043c.158-.448.41-.808.756-1.078.336-.242.699-.364 1.092-.364.14 0 .266.01.377.028z"/><path d="m103.707 222.234h-1.666v3.304c0 .84.295 1.26.883 1.26.271 0 .494-.022.672-.069l.042 1.147c-.299.112-.69.168-1.177.168-.597 0-1.063-.182-1.399-.546-.336-.363-.504-.975-.504-1.834v-3.43h-.994v-1.134h.994v-1.246l1.483-.448v1.694h1.666z"/></g><g fill-opacity=".17"><path d="m62.409 227.258c0 .804-.279 1.456-.838 1.961-.614.551-1.471.825-2.57.825-1.015 0-1.83-.195-2.444-.588l.35-1.26c.663.392 1.391.588 2.184.588.569 0 1.012-.128 1.33-.385s.476-.6.476-1.029c0-.383-.131-.704-.392-.966-.261-.261-.695-.504-1.302-.728-1.652-.616-2.478-1.517-2.478-2.702 0-.775.292-1.409.875-1.904.583-.494 1.355-.742 2.317-.742.859 0 1.573.149 2.142.448l-.379 1.231c-.534-.289-1.138-.434-1.812-.434-.534 0-.951.131-1.251.392-.253.233-.379.519-.379.854 0 .373.145.682.434.924.252.225.709.467 1.372.729.812.326 1.409.709 1.792 1.147.381.441.573.986.573 1.639z"/><path d="m69.829 229.904h-1.33l-.084-1.036h-.028c-.476.794-1.195 1.19-2.156 1.19-.672 0-1.208-.21-1.61-.63-.476-.514-.714-1.288-.714-2.324v-4.004h1.512v3.752c0 1.307.448 1.96 1.344 1.96.672 0 1.139-.327 1.4-.98.065-.168.098-.359.098-.574v-4.157h1.512v4.844c-.001.643.018 1.297.056 1.959z"/><path d="m78.172 226.418c0 1.158-.315 2.072-.943 2.744-.563.598-1.263.896-2.098.896-.901 0-1.548-.322-1.943-.966v3.569h-1.512v-7.325c0-.727-.019-1.473-.056-2.236h1.33l.084 1.078h.028c.504-.812 1.27-1.219 2.296-1.219.803 0 1.472.317 2.009.952.537.636.805 1.471.805 2.507zm-1.54.057c0-.663-.149-1.209-.448-1.639-.327-.447-.765-.672-1.316-.672-.374 0-.712.124-1.015.371s-.502.572-.595.973c-.047.188-.07.341-.07.463v1.134c0 .494.152.912.455 1.253s.698.511 1.183.511c.569 0 1.013-.219 1.33-.658.317-.44.476-1.018.476-1.736z"/><path d="m86.068 226.418c0 1.158-.314 2.072-.943 2.744-.563.598-1.263.896-2.098.896-.901 0-1.549-.322-1.943-.966v3.569h-1.512v-7.325c0-.727-.019-1.473-.056-2.236h1.33l.084 1.078h.028c.504-.812 1.27-1.219 2.296-1.219.803 0 1.473.317 2.01.952.536.636.804 1.471.804 2.507zm-1.54.057c0-.663-.149-1.209-.448-1.639-.326-.447-.766-.672-1.316-.672-.373 0-.711.124-1.015.371s-.502.572-.595.973c-.047.188-.07.341-.07.463v1.134c0 .494.152.912.455 1.253s.697.511 1.184.511c.568 0 1.012-.219 1.33-.658.316-.44.475-1.018.475-1.736z"/><path d="m93.754 226.446c0 1.046-.299 1.904-.896 2.576-.625.69-1.455 1.036-2.492 1.036-.998 0-1.794-.331-2.387-.994-.592-.663-.889-1.498-.889-2.506 0-1.055.306-1.918.917-2.59.611-.673 1.435-1.009 2.472-1.009.998 0 1.801.332 2.407.994.579.646.868 1.476.868 2.493zm-1.568.035c0-.624-.135-1.158-.406-1.605-.316-.54-.77-.81-1.357-.81-.607 0-1.068.27-1.386.81-.271.447-.406.991-.406 1.634 0 .623.136 1.158.406 1.604.326.54.784.81 1.372.81.578 0 1.031-.274 1.357-.823.28-.456.42-.997.42-1.62z"/><path d="m98.793 224.431c-.148-.028-.307-.042-.475-.042-.533 0-.943.2-1.232.602-.252.354-.379.803-.379 1.344v3.57h-1.512v-4.662c0-.784-.014-1.498-.041-2.142h1.315l.056 1.302h.043c.158-.448.41-.808.756-1.078.336-.242.699-.364 1.092-.364.14 0 .266.01.377.028z"/><path d="m103.707 224.234h-1.666v3.304c0 .84.295 1.26.883 1.26.271 0 .494-.022.672-.069l.042 1.147c-.299.112-.69.168-1.177.168-.597 0-1.063-.182-1.399-.546-.336-.363-.504-.975-.504-1.834v-3.43h-.994v-1.134h.994v-1.246l1.483-.448v1.694h1.666z"/></g><g fill="#fff"><path d="m62.409 226.258c0 .804-.279 1.456-.838 1.961-.614.551-1.471.825-2.57.825-1.015 0-1.83-.195-2.444-.588l.35-1.26c.663.392 1.391.588 2.184.588.569 0 1.012-.128 1.33-.385s.476-.6.476-1.029c0-.383-.131-.704-.392-.966-.261-.261-.695-.504-1.302-.728-1.652-.616-2.478-1.517-2.478-2.702 0-.775.292-1.409.875-1.904.583-.494 1.355-.742 2.317-.742.859 0 1.573.149 2.142.448l-.379 1.231c-.534-.289-1.138-.434-1.812-.434-.534 0-.951.131-1.251.392-.253.233-.379.519-.379.854 0 .373.145.682.434.924.252.225.709.467 1.372.729.812.326 1.409.709 1.792 1.147.381.441.573.986.573 1.639z"/><path d="m69.829 228.904h-1.33l-.084-1.036h-.028c-.476.794-1.195 1.19-2.156 1.19-.672 0-1.208-.21-1.61-.63-.476-.514-.714-1.288-.714-2.324v-4.004h1.512v3.752c0 1.307.448 1.96 1.344 1.96.672 0 1.139-.327 1.4-.98.065-.168.098-.359.098-.574v-4.157h1.512v4.844c-.001.643.018 1.297.056 1.959z"/><path d="m78.172 225.418c0 1.158-.315 2.072-.943 2.744-.563.598-1.263.896-2.098.896-.901 0-1.548-.322-1.943-.966v3.569h-1.512v-7.325c0-.727-.019-1.473-.056-2.236h1.33l.084 1.078h.028c.504-.812 1.27-1.219 2.296-1.219.803 0 1.472.317 2.009.952.537.636.805 1.471.805 2.507zm-1.54.057c0-.663-.149-1.209-.448-1.639-.327-.447-.765-.672-1.316-.672-.374 0-.712.124-1.015.371s-.502.572-.595.973c-.047.188-.07.341-.07.463v1.134c0 .494.152.912.455 1.253s.698.511 1.183.511c.569 0 1.013-.219 1.33-.658.317-.44.476-1.018.476-1.736z"/><path d="m86.068 225.418c0 1.158-.314 2.072-.943 2.744-.563.598-1.263.896-2.098.896-.901 0-1.549-.322-1.943-.966v3.569h-1.512v-7.325c0-.727-.019-1.473-.056-2.236h1.33l.084 1.078h.028c.504-.812 1.27-1.219 2.296-1.219.803 0 1.473.317 2.01.952.536.636.804 1.471.804 2.507zm-1.54.057c0-.663-.149-1.209-.448-1.639-.326-.447-.766-.672-1.316-.672-.373 0-.711.124-1.015.371s-.502.572-.595.973c-.047.188-.07.341-.07.463v1.134c0 .494.152.912.455 1.253s.697.511 1.184.511c.568 0 1.012-.219 1.33-.658.316-.44.475-1.018.475-1.736z"/><path d="m93.754 225.446c0 1.046-.299 1.904-.896 2.576-.625.69-1.455 1.036-2.492 1.036-.998 0-1.794-.331-2.387-.994-.592-.663-.889-1.498-.889-2.506 0-1.055.306-1.918.917-2.59.611-.673 1.435-1.009 2.472-1.009.998 0 1.801.332 2.407.994.579.646.868 1.476.868 2.493zm-1.568.035c0-.624-.135-1.158-.406-1.605-.316-.54-.77-.81-1.357-.81-.607 0-1.068.27-1.386.81-.271.447-.406.991-.406 1.634 0 .623.136 1.158.406 1.604.326.54.784.81 1.372.81.578 0 1.031-.274 1.357-.823.28-.456.42-.997.42-1.62z"/><path d="m98.793 223.431c-.148-.028-.307-.042-.475-.042-.533 0-.943.2-1.232.602-.252.354-.379.803-.379 1.344v3.57h-1.512v-4.662c0-.784-.014-1.498-.041-2.142h1.315l.056 1.302h.043c.158-.448.41-.808.756-1.078.336-.242.699-.364 1.092-.364.14 0 .266.01.377.028z"/><path d="m103.707 223.234h-1.666v3.304c0 .84.295 1.26.883 1.26.271 0 .494-.022.672-.069l.042 1.147c-.299.112-.69.168-1.177.168-.597 0-1.063-.182-1.399-.546-.336-.363-.504-.975-.504-1.834v-3.43h-.994v-1.134h.994v-1.246l1.483-.448v1.694h1.666z"/></g><g fill-opacity=".5"><path d="m63.787 188.994c0 .271-.089.49-.266.658-.178.168-.406.252-.686.252-.252 0-.464-.086-.637-.259s-.259-.39-.259-.651.088-.476.266-.644c.177-.169.397-.253.658-.253s.48.084.658.253c.177.169.266.383.266.644zm-.168 8.834h-1.512v-6.804h1.512z"/><path d="m71.431 189.666h-2.716v8.162h-1.512v-8.162h-2.688v-1.273h6.916z"/><path d="m77.661 197.828h-1.33l-.084-1.036h-.028c-.476.794-1.195 1.19-2.156 1.19-.672 0-1.208-.21-1.61-.63-.476-.514-.714-1.288-.714-2.324v-4.004h1.512v3.752c0 1.307.448 1.96 1.344 1.96.672 0 1.139-.327 1.4-.98.065-.168.098-.359.098-.574v-4.157h1.512v4.844c0 .643.019 1.297.056 1.959z"/><path d="m85.431 197.828h-1.513v-3.906c0-1.204-.457-1.806-1.371-1.806-.448 0-.812.166-1.092.497s-.42.721-.42 1.169v4.046h-1.513v-4.858c0-.597-.019-1.245-.056-1.945h1.33l.07 1.05h.041c.178-.327.439-.598.785-.812.41-.252.867-.378 1.371-.378.635 0 1.162.206 1.582.616.523.504.784 1.256.784 2.254v4.073z"/><path d="m92.893 194.104c0 .271-.019.499-.056.686h-4.536c.019.672.238 1.186.658 1.54.383.317.877.476 1.484.476.672 0 1.283-.106 1.834-.321l.237 1.05c-.644.28-1.405.42-2.282.42-1.055 0-1.883-.311-2.484-.931-.602-.621-.903-1.454-.903-2.499 0-1.027.28-1.881.841-2.562.588-.728 1.381-1.092 2.379-1.092.98 0 1.723.364 2.227 1.092.399.578.601 1.292.601 2.141zm-1.442-.392c.009-.448-.09-.835-.295-1.162-.261-.42-.662-.63-1.203-.63-.495 0-.896.206-1.204.616-.253.327-.401.719-.448 1.176z"/><path d="m98.381 195.868c0 .635-.234 1.144-.7 1.526-.467.383-1.11.573-1.933.573-.774 0-1.432-.153-1.974-.462l.322-1.12c.522.317 1.077.477 1.666.477.774 0 1.161-.285 1.161-.854 0-.252-.084-.459-.252-.623-.168-.163-.467-.324-.896-.482-1.214-.448-1.819-1.102-1.819-1.96 0-.588.224-1.078.672-1.471.447-.392 1.04-.588 1.777-.588.672 0 1.246.136 1.723.406l-.322 1.078c-.439-.261-.9-.392-1.387-.392-.316 0-.564.074-.741.224-.178.149-.267.341-.267.574s.094.425.28.573c.159.141.467.295.925.463 1.177.448 1.765 1.134 1.765 2.058z"/></g><g fill-opacity=".17"><path d="m63.787 190.994c0 .271-.089.49-.266.658-.178.168-.406.252-.686.252-.252 0-.464-.086-.637-.259s-.259-.39-.259-.651.088-.476.266-.644c.177-.169.397-.253.658-.253s.48.084.658.253c.177.169.266.383.266.644zm-.168 8.834h-1.512v-6.804h1.512z"/><path d="m71.431 191.666h-2.716v8.162h-1.512v-8.162h-2.688v-1.273h6.916z"/><path d="m77.661 199.828h-1.33l-.084-1.036h-.028c-.476.794-1.195 1.19-2.156 1.19-.672 0-1.208-.21-1.61-.63-.476-.514-.714-1.288-.714-2.324v-4.004h1.512v3.752c0 1.307.448 1.96 1.344 1.96.672 0 1.139-.327 1.4-.98.065-.168.098-.359.098-.574v-4.157h1.512v4.844c0 .643.019 1.297.056 1.959z"/><path d="m85.431 199.828h-1.513v-3.906c0-1.204-.457-1.806-1.371-1.806-.448 0-.812.166-1.092.497s-.42.721-.42 1.169v4.046h-1.513v-4.858c0-.597-.019-1.245-.056-1.945h1.33l.07 1.05h.041c.178-.327.439-.598.785-.812.41-.252.867-.378 1.371-.378.635 0 1.162.206 1.582.616.523.504.784 1.256.784 2.254v4.073z"/><path d="m92.893 196.104c0 .271-.019.499-.056.686h-4.536c.019.672.238 1.186.658 1.54.383.317.877.476 1.484.476.672 0 1.283-.106 1.834-.321l.237 1.05c-.644.28-1.405.42-2.282.42-1.055 0-1.883-.311-2.484-.931-.602-.621-.903-1.454-.903-2.499 0-1.027.28-1.881.841-2.562.588-.728 1.381-1.092 2.379-1.092.98 0 1.723.364 2.227 1.092.399.578.601 1.292.601 2.141zm-1.442-.392c.009-.448-.09-.835-.295-1.162-.261-.42-.662-.63-1.203-.63-.495 0-.896.206-1.204.616-.253.327-.401.719-.448 1.176z"/><path d="m98.381 197.868c0 .635-.234 1.144-.7 1.526-.467.383-1.11.573-1.933.573-.774 0-1.432-.153-1.974-.462l.322-1.12c.522.317 1.077.477 1.666.477.774 0 1.161-.285 1.161-.854 0-.252-.084-.459-.252-.623-.168-.163-.467-.324-.896-.482-1.214-.448-1.819-1.102-1.819-1.96 0-.588.224-1.078.672-1.471.447-.392 1.04-.588 1.777-.588.672 0 1.246.136 1.723.406l-.322 1.078c-.439-.261-.9-.392-1.387-.392-.316 0-.564.074-.741.224-.178.149-.267.341-.267.574s.094.425.28.573c.159.141.467.295.925.463 1.177.448 1.765 1.134 1.765 2.058z"/></g><path d="m63.787 189.994c0 .271-.089.49-.266.658-.178.168-.406.252-.686.252-.252 0-.464-.086-.637-.259s-.259-.39-.259-.651.088-.476.266-.644c.177-.169.397-.253.658-.253s.48.084.658.253c.177.169.266.383.266.644zm-.168 8.834h-1.512v-6.804h1.512z" fill="#fff"/><path d="m71.431 190.666h-2.716v8.162h-1.512v-8.162h-2.688v-1.273h6.916z" fill="#fff"/><path d="m77.661 198.828h-1.33l-.084-1.036h-.028c-.476.794-1.195 1.19-2.156 1.19-.672 0-1.208-.21-1.61-.63-.476-.514-.714-1.288-.714-2.324v-4.004h1.512v3.752c0 1.307.448 1.96 1.344 1.96.672 0 1.139-.327 1.4-.98.065-.168.098-.359.098-.574v-4.157h1.512v4.844c0 .643.019 1.297.056 1.959z" fill="#fff"/><path d="m85.431 198.828h-1.513v-3.906c0-1.204-.457-1.806-1.371-1.806-.448 0-.812.166-1.092.497s-.42.721-.42 1.169v4.046h-1.513v-4.858c0-.597-.019-1.245-.056-1.945h1.33l.07 1.05h.041c.178-.327.439-.598.785-.812.41-.252.867-.378 1.371-.378.635 0 1.162.206 1.582.616.523.504.784 1.256.784 2.254v4.073z" fill="#fff"/><path d="m92.893 195.104c0 .271-.019.499-.056.686h-4.536c.019.672.238 1.186.658 1.54.383.317.877.476 1.484.476.672 0 1.283-.106 1.834-.321l.237 1.05c-.644.28-1.405.42-2.282.42-1.055 0-1.883-.311-2.484-.931-.602-.621-.903-1.454-.903-2.499 0-1.027.28-1.881.841-2.562.588-.728 1.381-1.092 2.379-1.092.98 0 1.723.364 2.227 1.092.399.578.601 1.292.601 2.141zm-1.442-.392c.009-.448-.09-.835-.295-1.162-.261-.42-.662-.63-1.203-.63-.495 0-.896.206-1.204.616-.253.327-.401.719-.448 1.176z" fill="#fff"/><path d="m98.381 196.868c0 .635-.234 1.144-.7 1.526-.467.383-1.11.573-1.933.573-.774 0-1.432-.153-1.974-.462l.322-1.12c.522.317 1.077.477 1.666.477.774 0 1.161-.285 1.161-.854 0-.252-.084-.459-.252-.623-.168-.163-.467-.324-.896-.482-1.214-.448-1.819-1.102-1.819-1.96 0-.588.224-1.078.672-1.471.447-.392 1.04-.588 1.777-.588.672 0 1.246.136 1.723.406l-.322 1.078c-.439-.261-.9-.392-1.387-.392-.316 0-.564.074-.741.224-.178.149-.267.341-.267.574s.094.425.28.573c.159.141.467.295.925.463 1.177.448 1.765 1.134 1.765 2.058z" fill="#fff"/><g fill-opacity=".5"><path d="m69.987 159.206c0 .271-.089.49-.266.658-.178.168-.406.252-.686.252-.252 0-.464-.086-.637-.259s-.259-.39-.259-.651.088-.476.266-.644c.177-.169.397-.253.658-.253s.48.084.658.253c.177.168.266.383.266.644zm-.168 8.834h-1.512v-6.804h1.512z"/><path d="m77.869 161.348c0 .868-.256 1.563-.768 2.086-.661.682-1.624 1.022-2.889 1.022-.372 0-.661-.023-.865-.07v3.654h-1.512v-9.31c.719-.131 1.54-.196 2.464-.196 1.194 0 2.095.257 2.702.77.579.504.868 1.185.868 2.044zm-1.498.07c0-.551-.176-.973-.529-1.267-.354-.294-.846-.441-1.478-.441-.418 0-.757.028-1.017.084v3.388c.213.057.506.084.878.084.669 0 1.194-.163 1.575-.489.381-.328.571-.78.571-1.359z"/><path d="m84.029 168.04h-1.357l-.113-.784h-.041c-.467.626-1.13.938-1.988.938-.644 0-1.162-.205-1.554-.616-.354-.373-.532-.835-.532-1.386 0-.831.348-1.466 1.043-1.904s1.673-.653 2.934-.645v-.126c0-.896-.473-1.344-1.414-1.344-.672 0-1.266.168-1.779.504l-.308-.994c.634-.392 1.414-.588 2.338-.588 1.782 0 2.674.938 2.674 2.814v2.506c0 .683.032 1.224.097 1.625zm-1.568-2.338v-1.05c-1.67-.028-2.506.429-2.506 1.372 0 .354.098.62.292.798.195.177.441.266.739.266.334 0 .643-.104.925-.314.283-.21.457-.479.522-.806.018-.074.028-.163.028-.266z"/><path d="m91.842 168.04h-1.345l-.069-1.092h-.043c-.43.831-1.157 1.246-2.184 1.246-.821 0-1.503-.322-2.044-.966-.542-.645-.812-1.479-.812-2.507 0-1.101.295-1.992.887-2.674.572-.635 1.276-.952 2.111-.952.92 0 1.562.309 1.93.925v-3.906h1.512v8.092c0 .663.019 1.274.057 1.834zm-1.569-2.87v-1.134c0-.196-.015-.354-.043-.477-.084-.363-.267-.669-.548-.917-.281-.247-.618-.37-1.013-.37-.562 0-1.004.224-1.328.672-.322.447-.484 1.021-.484 1.722 0 .672.154 1.218.464 1.638.327.448.769.672 1.321.672.496 0 .895-.187 1.195-.56.291-.345.436-.761.436-1.246z"/></g><g fill-opacity=".17"><path d="m69.987 161.206c0 .271-.089.49-.266.658-.178.168-.406.252-.686.252-.252 0-.464-.086-.637-.259s-.259-.39-.259-.651.088-.476.266-.644c.177-.169.397-.253.658-.253s.48.084.658.253c.177.168.266.383.266.644zm-.168 8.834h-1.512v-6.804h1.512z"/><path d="m77.869 163.348c0 .868-.256 1.563-.768 2.086-.661.682-1.624 1.022-2.889 1.022-.372 0-.661-.023-.865-.07v3.654h-1.512v-9.31c.719-.131 1.54-.196 2.464-.196 1.194 0 2.095.257 2.702.77.579.504.868 1.185.868 2.044zm-1.498.07c0-.551-.176-.973-.529-1.267-.354-.294-.846-.441-1.478-.441-.418 0-.757.028-1.017.084v3.388c.213.057.506.084.878.084.669 0 1.194-.163 1.575-.489.381-.328.571-.78.571-1.359z"/><path d="m84.029 170.04h-1.357l-.113-.784h-.041c-.467.626-1.13.938-1.988.938-.644 0-1.162-.205-1.554-.616-.354-.373-.532-.835-.532-1.386 0-.831.348-1.466 1.043-1.904s1.673-.653 2.934-.645v-.126c0-.896-.473-1.344-1.414-1.344-.672 0-1.266.168-1.779.504l-.308-.994c.634-.392 1.414-.588 2.338-.588 1.782 0 2.674.938 2.674 2.814v2.506c0 .683.032 1.224.097 1.625zm-1.568-2.338v-1.05c-1.67-.028-2.506.429-2.506 1.372 0 .354.098.62.292.798.195.177.441.266.739.266.334 0 .643-.104.925-.314.283-.21.457-.479.522-.806.018-.074.028-.163.028-.266z"/><path d="m91.842 170.04h-1.345l-.069-1.092h-.043c-.43.831-1.157 1.246-2.184 1.246-.821 0-1.503-.322-2.044-.966-.542-.645-.812-1.479-.812-2.507 0-1.101.295-1.992.887-2.674.572-.635 1.276-.952 2.111-.952.92 0 1.562.309 1.93.925v-3.906h1.512v8.092c0 .663.019 1.274.057 1.834zm-1.569-2.87v-1.134c0-.196-.015-.354-.043-.477-.084-.363-.267-.669-.548-.917-.281-.247-.618-.37-1.013-.37-.562 0-1.004.224-1.328.672-.322.447-.484 1.021-.484 1.722 0 .672.154 1.218.464 1.638.327.448.769.672 1.321.672.496 0 .895-.187 1.195-.56.291-.345.436-.761.436-1.246z"/></g><path d="m69.987 160.206c0 .271-.089.49-.266.658-.178.168-.406.252-.686.252-.252 0-.464-.086-.637-.259s-.259-.39-.259-.651.088-.476.266-.644c.177-.169.397-.253.658-.253s.48.084.658.253c.177.168.266.383.266.644zm-.168 8.834h-1.512v-6.804h1.512z" fill="#fff"/><path d="m77.869 162.348c0 .868-.256 1.563-.768 2.086-.661.682-1.624 1.022-2.889 1.022-.372 0-.661-.023-.865-.07v3.654h-1.512v-9.31c.719-.131 1.54-.196 2.464-.196 1.194 0 2.095.257 2.702.77.579.504.868 1.185.868 2.044zm-1.498.07c0-.551-.176-.973-.529-1.267-.354-.294-.846-.441-1.478-.441-.418 0-.757.028-1.017.084v3.388c.213.057.506.084.878.084.669 0 1.194-.163 1.575-.489.381-.328.571-.78.571-1.359z" fill="#fff"/><path d="m84.029 169.04h-1.357l-.113-.784h-.041c-.467.626-1.13.938-1.988.938-.644 0-1.162-.205-1.554-.616-.354-.373-.532-.835-.532-1.386 0-.831.348-1.466 1.043-1.904s1.673-.653 2.934-.645v-.126c0-.896-.473-1.344-1.414-1.344-.672 0-1.266.168-1.779.504l-.308-.994c.634-.392 1.414-.588 2.338-.588 1.782 0 2.674.938 2.674 2.814v2.506c0 .683.032 1.224.097 1.625zm-1.568-2.338v-1.05c-1.67-.028-2.506.429-2.506 1.372 0 .354.098.62.292.798.195.177.441.266.739.266.334 0 .643-.104.925-.314.283-.21.457-.479.522-.806.018-.074.028-.163.028-.266z" fill="#fff"/><path d="m91.842 169.04h-1.345l-.069-1.092h-.043c-.43.831-1.157 1.246-2.184 1.246-.821 0-1.503-.322-2.044-.966-.542-.645-.812-1.479-.812-2.507 0-1.101.295-1.992.887-2.674.572-.635 1.276-.952 2.111-.952.92 0 1.562.309 1.93.925v-3.906h1.512v8.092c0 .663.019 1.274.057 1.834zm-1.569-2.87v-1.134c0-.196-.015-.354-.043-.477-.084-.363-.267-.669-.548-.917-.281-.247-.618-.37-1.013-.37-.562 0-1.004.224-1.328.672-.322.447-.484 1.021-.484 1.722 0 .672.154 1.218.464 1.638.327.448.769.672 1.321.672.496 0 .895-.187 1.195-.56.291-.345.436-.761.436-1.246z" fill="#fff"/><g fill-opacity=".5"><path d="m62.03 129.008c0 .271-.089.49-.266.658-.178.168-.406.252-.686.252-.252 0-.464-.086-.637-.259s-.259-.39-.259-.651.088-.476.266-.644c.177-.169.397-.253.658-.253s.48.084.658.253c.177.168.266.383.266.644zm-.168 8.834h-1.512v-6.804h1.512z"/><path d="m69.912 131.149c0 .868-.256 1.563-.768 2.086-.661.682-1.624 1.022-2.889 1.022-.372 0-.661-.023-.865-.07v3.654h-1.512v-9.31c.719-.131 1.54-.196 2.464-.196 1.194 0 2.095.257 2.702.77.578.504.868 1.186.868 2.044zm-1.498.071c0-.551-.176-.973-.529-1.267-.354-.294-.846-.441-1.478-.441-.418 0-.757.028-1.017.084v3.388c.213.057.506.084.878.084.669 0 1.194-.163 1.575-.489.38-.328.571-.78.571-1.359z"/><path d="m77.233 137.842h-1.512v-3.878c0-1.223-.458-1.834-1.372-1.834-.7 0-1.181.354-1.442 1.063-.047.149-.07.332-.07.547v4.102h-1.512v-9.926h1.512v4.088h.028c.476-.737 1.157-1.106 2.044-1.106.625 0 1.143.206 1.554.616.513.514.77 1.274.77 2.282z"/><path d="m85.326 134.384c0 1.046-.299 1.904-.896 2.576-.625.69-1.456 1.036-2.492 1.036-.998 0-1.794-.331-2.387-.994s-.889-1.498-.889-2.506c0-1.055.306-1.918.917-2.59.611-.673 1.435-1.009 2.471-1.009.999 0 1.802.332 2.407.994.579.645.869 1.475.869 2.493zm-1.568.035c0-.624-.136-1.158-.406-1.605-.317-.54-.77-.81-1.357-.81-.607 0-1.069.27-1.387.81-.271.447-.406.991-.406 1.634 0 .623.135 1.158.406 1.604.326.54.784.81 1.372.81.579 0 1.031-.274 1.358-.823.279-.457.42-.997.42-1.62z"/><path d="m92.689 137.842h-1.512v-3.906c0-1.204-.457-1.806-1.372-1.806-.448 0-.812.166-1.093.497-.279.331-.42.721-.42 1.169v4.046h-1.512v-4.858c0-.597-.019-1.245-.056-1.945h1.33l.069 1.05h.043c.177-.327.438-.598.783-.812.41-.252.868-.378 1.372-.378.635 0 1.162.206 1.582.616.522.504.784 1.256.784 2.254v4.073z"/><path d="m100.151 134.118c0 .271-.019.499-.056.686h-4.535c.019.672.238 1.186.658 1.54.382.317.877.476 1.483.476.672 0 1.283-.106 1.834-.321l.238 1.05c-.645.28-1.404.42-2.281.42-1.055 0-1.884-.311-2.485-.931-.603-.621-.903-1.454-.903-2.499 0-1.027.28-1.881.84-2.562.588-.728 1.381-1.092 2.381-1.092.979 0 1.721.364 2.226 1.092.4.578.6 1.292.6 2.141zm-1.442-.392c.01-.448-.088-.835-.293-1.162-.262-.42-.663-.63-1.205-.63-.494 0-.896.206-1.203.616-.252.327-.401.719-.448 1.176z"/></g><g fill-opacity=".17"><path d="m62.03 131.008c0 .271-.089.49-.266.658-.178.168-.406.252-.686.252-.252 0-.464-.086-.637-.259s-.259-.39-.259-.651.088-.476.266-.644c.177-.169.397-.253.658-.253s.48.084.658.253c.177.168.266.383.266.644zm-.168 8.834h-1.512v-6.804h1.512z"/><path d="m69.912 133.149c0 .868-.256 1.563-.768 2.086-.661.682-1.624 1.022-2.889 1.022-.372 0-.661-.023-.865-.07v3.654h-1.512v-9.31c.719-.131 1.54-.196 2.464-.196 1.194 0 2.095.257 2.702.77.578.504.868 1.186.868 2.044zm-1.498.071c0-.551-.176-.973-.529-1.267-.354-.294-.846-.441-1.478-.441-.418 0-.757.028-1.017.084v3.388c.213.057.506.084.878.084.669 0 1.194-.163 1.575-.489.38-.328.571-.78.571-1.359z"/><path d="m77.233 139.842h-1.512v-3.878c0-1.223-.458-1.834-1.372-1.834-.7 0-1.181.354-1.442 1.063-.047.149-.07.332-.07.547v4.102h-1.512v-9.926h1.512v4.088h.028c.476-.737 1.157-1.106 2.044-1.106.625 0 1.143.206 1.554.616.513.514.77 1.274.77 2.282z"/><path d="m85.326 136.384c0 1.046-.299 1.904-.896 2.576-.625.69-1.456 1.036-2.492 1.036-.998 0-1.794-.331-2.387-.994s-.889-1.498-.889-2.506c0-1.055.306-1.918.917-2.59.611-.673 1.435-1.009 2.471-1.009.999 0 1.802.332 2.407.994.579.645.869 1.475.869 2.493zm-1.568.035c0-.624-.136-1.158-.406-1.605-.317-.54-.77-.81-1.357-.81-.607 0-1.069.27-1.387.81-.271.447-.406.991-.406 1.634 0 .623.135 1.158.406 1.604.326.54.784.81 1.372.81.579 0 1.031-.274 1.358-.823.279-.457.42-.997.42-1.62z"/><path d="m92.689 139.842h-1.512v-3.906c0-1.204-.457-1.806-1.372-1.806-.448 0-.812.166-1.093.497-.279.331-.42.721-.42 1.169v4.046h-1.512v-4.858c0-.597-.019-1.245-.056-1.945h1.33l.069 1.05h.043c.177-.327.438-.598.783-.812.41-.252.868-.378 1.372-.378.635 0 1.162.206 1.582.616.522.504.784 1.256.784 2.254v4.073z"/><path d="m100.151 136.118c0 .271-.019.499-.056.686h-4.535c.019.672.238 1.186.658 1.54.382.317.877.476 1.483.476.672 0 1.283-.106 1.834-.321l.238 1.05c-.645.28-1.404.42-2.281.42-1.055 0-1.884-.311-2.485-.931-.603-.621-.903-1.454-.903-2.499 0-1.027.28-1.881.84-2.562.588-.728 1.381-1.092 2.381-1.092.979 0 1.721.364 2.226 1.092.4.578.6 1.292.6 2.141zm-1.442-.392c.01-.448-.088-.835-.293-1.162-.262-.42-.663-.63-1.205-.63-.494 0-.896.206-1.203.616-.252.327-.401.719-.448 1.176z"/></g><path d="m62.03 130.008c0 .271-.089.49-.266.658-.178.168-.406.252-.686.252-.252 0-.464-.086-.637-.259s-.259-.39-.259-.651.088-.476.266-.644c.177-.169.397-.253.658-.253s.48.084.658.253c.177.168.266.383.266.644zm-.168 8.834h-1.512v-6.804h1.512z" fill="#fff"/><path d="m69.912 132.149c0 .868-.256 1.563-.768 2.086-.661.682-1.624 1.022-2.889 1.022-.372 0-.661-.023-.865-.07v3.654h-1.512v-9.31c.719-.131 1.54-.196 2.464-.196 1.194 0 2.095.257 2.702.77.578.504.868 1.186.868 2.044zm-1.498.071c0-.551-.176-.973-.529-1.267-.354-.294-.846-.441-1.478-.441-.418 0-.757.028-1.017.084v3.388c.213.057.506.084.878.084.669 0 1.194-.163 1.575-.489.38-.328.571-.78.571-1.359z" fill="#fff"/><path d="m77.233 138.842h-1.512v-3.878c0-1.223-.458-1.834-1.372-1.834-.7 0-1.181.354-1.442 1.063-.047.149-.07.332-.07.547v4.102h-1.512v-9.926h1.512v4.088h.028c.476-.737 1.157-1.106 2.044-1.106.625 0 1.143.206 1.554.616.513.514.77 1.274.77 2.282z" fill="#fff"/><path d="m85.326 135.384c0 1.046-.299 1.904-.896 2.576-.625.69-1.456 1.036-2.492 1.036-.998 0-1.794-.331-2.387-.994s-.889-1.498-.889-2.506c0-1.055.306-1.918.917-2.59.611-.673 1.435-1.009 2.471-1.009.999 0 1.802.332 2.407.994.579.645.869 1.475.869 2.493zm-1.568.035c0-.624-.136-1.158-.406-1.605-.317-.54-.77-.81-1.357-.81-.607 0-1.069.27-1.387.81-.271.447-.406.991-.406 1.634 0 .623.135 1.158.406 1.604.326.54.784.81 1.372.81.579 0 1.031-.274 1.358-.823.279-.457.42-.997.42-1.62z" fill="#fff"/><path d="m92.689 138.842h-1.512v-3.906c0-1.204-.457-1.806-1.372-1.806-.448 0-.812.166-1.093.497-.279.331-.42.721-.42 1.169v4.046h-1.512v-4.858c0-.597-.019-1.245-.056-1.945h1.33l.069 1.05h.043c.177-.327.438-.598.783-.812.41-.252.868-.378 1.372-.378.635 0 1.162.206 1.582.616.522.504.784 1.256.784 2.254v4.073z" fill="#fff"/><path d="m100.151 135.118c0 .271-.019.499-.056.686h-4.535c.019.672.238 1.186.658 1.54.382.317.877.476 1.483.476.672 0 1.283-.106 1.834-.321l.238 1.05c-.645.28-1.404.42-2.281.42-1.055 0-1.884-.311-2.485-.931-.603-.621-.903-1.454-.903-2.499 0-1.027.28-1.881.84-2.562.588-.728 1.381-1.092 2.381-1.092.979 0 1.721.364 2.226 1.092.4.578.6 1.292.6 2.141zm-1.442-.392c.01-.448-.088-.835-.293-1.162-.262-.42-.663-.63-1.205-.63-.494 0-.896.206-1.203.616-.252.327-.401.719-.448 1.176z" fill="#fff"/><g fill-opacity=".5"><path d="m69.597 98.983c0 .271-.089.49-.266.658-.178.168-.406.252-.686.252-.252 0-.464-.086-.637-.259s-.259-.39-.259-.651.088-.476.266-.644c.177-.169.397-.253.658-.253s.48.084.658.253c.177.169.266.384.266.644zm-.168 8.834h-1.512v-6.804h1.512z"/><path d="m77.479 101.125c0 .868-.256 1.563-.768 2.086-.661.682-1.624 1.022-2.889 1.022-.372 0-.661-.023-.865-.07v3.654h-1.512v-9.31c.719-.131 1.54-.196 2.464-.196 1.194 0 2.095.257 2.702.77.578.504.868 1.186.868 2.044zm-1.498.07c0-.551-.176-.973-.529-1.267-.354-.294-.846-.441-1.478-.441-.418 0-.757.028-1.017.084v3.388c.213.057.506.084.878.084.669 0 1.194-.163 1.575-.489.381-.327.571-.78.571-1.359z"/><path d="m84.633 104.359c0 1.046-.299 1.904-.896 2.576-.626.69-1.456 1.036-2.492 1.036-.999 0-1.794-.331-2.387-.994s-.889-1.498-.889-2.506c0-1.055.306-1.918.917-2.59.611-.673 1.435-1.009 2.471-1.009.998 0 1.801.332 2.408.994.579.646.868 1.476.868 2.493zm-1.568.036c0-.624-.136-1.158-.406-1.605-.317-.54-.771-.81-1.358-.81-.606 0-1.068.27-1.385.81-.271.447-.406.991-.406 1.634 0 .623.135 1.158.406 1.604.326.54.784.81 1.372.81.578 0 1.031-.274 1.358-.823.28-.457.419-.997.419-1.62z"/><path d="m92.151 107.817h-1.345l-.069-1.092h-.042c-.43.831-1.158 1.246-2.184 1.246-.822 0-1.504-.322-2.045-.966-.541-.645-.812-1.479-.812-2.507 0-1.101.296-1.992.888-2.674.572-.635 1.275-.952 2.111-.952.92 0 1.562.309 1.929.925v-3.906h1.513v8.092c.001.663.018 1.275.056 1.834zm-1.568-2.87v-1.134c0-.196-.015-.354-.042-.477-.084-.363-.268-.669-.549-.917-.281-.247-.618-.37-1.012-.37-.562 0-1.005.224-1.328.672-.323.447-.485 1.021-.485 1.722 0 .672.155 1.218.464 1.638.328.448.769.672 1.322.672.496 0 .895-.187 1.194-.56.291-.344.436-.76.436-1.246z"/></g><g fill-opacity=".17"><path d="m69.597 100.983c0 .271-.089.49-.266.658-.178.168-.406.252-.686.252-.252 0-.464-.086-.637-.259s-.259-.39-.259-.651.088-.476.266-.644c.177-.169.397-.253.658-.253s.48.084.658.253c.177.169.266.384.266.644zm-.168 8.834h-1.512v-6.804h1.512z"/><path d="m77.479 103.125c0 .868-.256 1.563-.768 2.086-.661.682-1.624 1.022-2.889 1.022-.372 0-.661-.023-.865-.07v3.654h-1.512v-9.31c.719-.131 1.54-.196 2.464-.196 1.194 0 2.095.257 2.702.77.578.504.868 1.186.868 2.044zm-1.498.07c0-.551-.176-.973-.529-1.267-.354-.294-.846-.441-1.478-.441-.418 0-.757.028-1.017.084v3.388c.213.057.506.084.878.084.669 0 1.194-.163 1.575-.489.381-.327.571-.78.571-1.359z"/><path d="m84.633 106.359c0 1.046-.299 1.904-.896 2.576-.626.69-1.456 1.036-2.492 1.036-.999 0-1.794-.331-2.387-.994s-.889-1.498-.889-2.506c0-1.055.306-1.918.917-2.59.611-.673 1.435-1.009 2.471-1.009.998 0 1.801.332 2.408.994.579.646.868 1.476.868 2.493zm-1.568.036c0-.624-.136-1.158-.406-1.605-.317-.54-.771-.81-1.358-.81-.606 0-1.068.27-1.385.81-.271.447-.406.991-.406 1.634 0 .623.135 1.158.406 1.604.326.54.784.81 1.372.81.578 0 1.031-.274 1.358-.823.28-.457.419-.997.419-1.62z"/><path d="m92.151 109.817h-1.345l-.069-1.092h-.042c-.43.831-1.158 1.246-2.184 1.246-.822 0-1.504-.322-2.045-.966-.541-.645-.812-1.479-.812-2.507 0-1.101.296-1.992.888-2.674.572-.635 1.275-.952 2.111-.952.92 0 1.562.309 1.929.925v-3.906h1.513v8.092c.001.663.018 1.275.056 1.834zm-1.568-2.87v-1.134c0-.196-.015-.354-.042-.477-.084-.363-.268-.669-.549-.917-.281-.247-.618-.37-1.012-.37-.562 0-1.005.224-1.328.672-.323.447-.485 1.021-.485 1.722 0 .672.155 1.218.464 1.638.328.448.769.672 1.322.672.496 0 .895-.187 1.194-.56.291-.344.436-.76.436-1.246z"/></g><path d="m69.597 99.983c0 .271-.089.49-.266.658-.178.168-.406.252-.686.252-.252 0-.464-.086-.637-.259s-.259-.39-.259-.651.088-.476.266-.644c.177-.169.397-.253.658-.253s.48.084.658.253c.177.169.266.384.266.644zm-.168 8.834h-1.512v-6.804h1.512z" fill="#fff"/><path d="m77.479 102.125c0 .868-.256 1.563-.768 2.086-.661.682-1.624 1.022-2.889 1.022-.372 0-.661-.023-.865-.07v3.654h-1.512v-9.31c.719-.131 1.54-.196 2.464-.196 1.194 0 2.095.257 2.702.77.578.504.868 1.186.868 2.044zm-1.498.07c0-.551-.176-.973-.529-1.267-.354-.294-.846-.441-1.478-.441-.418 0-.757.028-1.017.084v3.388c.213.057.506.084.878.084.669 0 1.194-.163 1.575-.489.381-.327.571-.78.571-1.359z" fill="#fff"/><path d="m84.633 105.359c0 1.046-.299 1.904-.896 2.576-.626.69-1.456 1.036-2.492 1.036-.999 0-1.794-.331-2.387-.994s-.889-1.498-.889-2.506c0-1.055.306-1.918.917-2.59.611-.673 1.435-1.009 2.471-1.009.998 0 1.801.332 2.408.994.579.646.868 1.476.868 2.493zm-1.568.036c0-.624-.136-1.158-.406-1.605-.317-.54-.771-.81-1.358-.81-.606 0-1.068.27-1.385.81-.271.447-.406.991-.406 1.634 0 .623.135 1.158.406 1.604.326.54.784.81 1.372.81.578 0 1.031-.274 1.358-.823.28-.457.419-.997.419-1.62z" fill="#fff"/><path d="m92.151 108.817h-1.345l-.069-1.092h-.042c-.43.831-1.158 1.246-2.184 1.246-.822 0-1.504-.322-2.045-.966-.541-.645-.812-1.479-.812-2.507 0-1.101.296-1.992.888-2.674.572-.635 1.275-.952 2.111-.952.92 0 1.562.309 1.929.925v-3.906h1.513v8.092c.001.663.018 1.275.056 1.834zm-1.568-2.87v-1.134c0-.196-.015-.354-.042-.477-.084-.363-.268-.669-.549-.917-.281-.247-.618-.37-1.012-.37-.562 0-1.005.224-1.328.672-.323.447-.485 1.021-.485 1.722 0 .672.155 1.218.464 1.638.328.448.769.672 1.322.672.496 0 .895-.187 1.194-.56.291-.344.436-.76.436-1.246z" fill="#fff"/><g fill-opacity=".5"><path d="m78.327 77.683h-1.47l-.196-3.948c-.093-1.782-.135-3.107-.126-3.976h-.042c-.299 1.11-.667 2.301-1.106 3.57l-1.47 4.27h-1.147l-1.344-4.2c-.401-1.269-.728-2.482-.98-3.64h-.028c-.047 1.419-.103 2.768-.168 4.046l-.224 3.878h-1.414l.63-9.436h1.946l1.358 4.088c.336 1.008.63 2.091.882 3.248h.042c.299-1.204.616-2.287.952-3.248l1.414-4.088h1.946z"/><path d="m85.215 77.683h-1.357l-.113-.784h-.041c-.467.626-1.13.938-1.988.938-.645 0-1.162-.205-1.554-.616-.354-.373-.532-.835-.532-1.386 0-.831.348-1.466 1.043-1.904s1.673-.653 2.934-.645v-.126c0-.896-.473-1.344-1.414-1.344-.672 0-1.266.168-1.779.504l-.308-.994c.634-.392 1.415-.588 2.338-.588 1.782 0 2.674.938 2.674 2.814v2.506c-.001.682.031 1.223.097 1.625zm-1.569-2.338v-1.05c-1.67-.028-2.506.429-2.506 1.372 0 .354.098.62.293.798.194.177.44.266.738.266.334 0 .643-.104.925-.314.283-.21.457-.479.522-.806.019-.075.028-.164.028-.266z"/><path d="m91.823 71.061-.294 1.148c-.383-.187-.821-.28-1.316-.28-.662 0-1.188.222-1.574.665-.388.443-.582 1.006-.582 1.687 0 .719.203 1.288.609 1.708s.922.63 1.547.63c.467 0 .924-.093 1.372-.279l.21 1.134c-.494.233-1.119.35-1.876.35-1.036 0-1.862-.314-2.478-.944s-.924-1.473-.924-2.527.33-1.92.994-2.597c.662-.677 1.553-1.016 2.674-1.016.635-.002 1.18.106 1.638.321z"/></g><g fill-opacity=".17"><path d="m78.327 79.683h-1.47l-.196-3.948c-.093-1.782-.135-3.107-.126-3.976h-.042c-.299 1.11-.667 2.301-1.106 3.57l-1.47 4.27h-1.147l-1.344-4.2c-.401-1.269-.728-2.482-.98-3.64h-.028c-.047 1.419-.103 2.768-.168 4.046l-.224 3.878h-1.414l.63-9.436h1.946l1.358 4.088c.336 1.008.63 2.091.882 3.248h.042c.299-1.204.616-2.287.952-3.248l1.414-4.088h1.946z"/><path d="m85.215 79.683h-1.357l-.113-.784h-.041c-.467.626-1.13.938-1.988.938-.645 0-1.162-.205-1.554-.616-.354-.373-.532-.835-.532-1.386 0-.831.348-1.466 1.043-1.904s1.673-.653 2.934-.645v-.126c0-.896-.473-1.344-1.414-1.344-.672 0-1.266.168-1.779.504l-.308-.994c.634-.392 1.415-.588 2.338-.588 1.782 0 2.674.938 2.674 2.814v2.506c-.001.682.031 1.223.097 1.625zm-1.569-2.338v-1.05c-1.67-.028-2.506.429-2.506 1.372 0 .354.098.62.293.798.194.177.44.266.738.266.334 0 .643-.104.925-.314.283-.21.457-.479.522-.806.019-.075.028-.164.028-.266z"/><path d="m91.823 73.061-.294 1.148c-.383-.187-.821-.28-1.316-.28-.662 0-1.188.222-1.574.665-.388.443-.582 1.006-.582 1.687 0 .719.203 1.288.609 1.708s.922.63 1.547.63c.467 0 .924-.093 1.372-.279l.21 1.134c-.494.233-1.119.35-1.876.35-1.036 0-1.862-.314-2.478-.944s-.924-1.473-.924-2.527.33-1.92.994-2.597c.662-.677 1.553-1.016 2.674-1.016.635-.002 1.18.106 1.638.321z"/></g><path d="m78.327 78.683h-1.47l-.196-3.948c-.093-1.782-.135-3.107-.126-3.976h-.042c-.299 1.11-.667 2.301-1.106 3.57l-1.47 4.27h-1.147l-1.344-4.2c-.401-1.269-.728-2.482-.98-3.64h-.028c-.047 1.419-.103 2.768-.168 4.046l-.224 3.878h-1.414l.63-9.436h1.946l1.358 4.088c.336 1.008.63 2.091.882 3.248h.042c.299-1.204.616-2.287.952-3.248l1.414-4.088h1.946z" fill="#fff"/><path d="m85.215 78.683h-1.357l-.113-.784h-.041c-.467.626-1.13.938-1.988.938-.645 0-1.162-.205-1.554-.616-.354-.373-.532-.835-.532-1.386 0-.831.348-1.466 1.043-1.904s1.673-.653 2.934-.645v-.126c0-.896-.473-1.344-1.414-1.344-.672 0-1.266.168-1.779.504l-.308-.994c.634-.392 1.415-.588 2.338-.588 1.782 0 2.674.938 2.674 2.814v2.506c-.001.682.031 1.223.097 1.625zm-1.569-2.338v-1.05c-1.67-.028-2.506.429-2.506 1.372 0 .354.098.62.293.798.194.177.44.266.738.266.334 0 .643-.104.925-.314.283-.21.457-.479.522-.806.019-.075.028-.164.028-.266z" fill="#fff"/><path d="m91.823 72.061-.294 1.148c-.383-.187-.821-.28-1.316-.28-.662 0-1.188.222-1.574.665-.388.443-.582 1.006-.582 1.687 0 .719.203 1.288.609 1.708s.922.63 1.547.63c.467 0 .924-.093 1.372-.279l.21 1.134c-.494.233-1.119.35-1.876.35-1.036 0-1.862-.314-2.478-.944s-.924-1.473-.924-2.527.33-1.92.994-2.597c.662-.677 1.553-1.016 2.674-1.016.635-.002 1.18.106 1.638.321z" fill="#fff"/><g fill-opacity=".5"><path d="m70.516 45.01c0 .804-.279 1.456-.838 1.961-.614.551-1.471.825-2.57.825-1.015 0-1.83-.195-2.444-.588l.35-1.26c.663.392 1.391.588 2.184.588.569 0 1.012-.128 1.33-.385s.476-.6.476-1.029c0-.383-.131-.704-.392-.966-.261-.261-.695-.504-1.302-.728-1.652-.616-2.478-1.517-2.478-2.702 0-.775.292-1.409.875-1.904.583-.494 1.355-.742 2.317-.742.859 0 1.573.149 2.142.448l-.379 1.231c-.534-.289-1.138-.434-1.812-.434-.534 0-.951.131-1.251.392-.253.233-.379.519-.379.854 0 .373.145.682.434.924.252.225.709.467 1.372.729.812.326 1.409.709 1.792 1.147.381.441.573.986.573 1.639z"/><path d="m75.429 41.986h-1.666v3.304c0 .84.294 1.26.882 1.26.271 0 .495-.022.672-.069l.042 1.147c-.299.112-.691.168-1.176.168-.597 0-1.064-.182-1.4-.546-.336-.363-.504-.975-.504-1.834v-3.43h-.994v-1.134h.994v-1.246l1.484-.448v1.694h1.666z"/><path d="m82.863 44.198c0 1.046-.299 1.904-.896 2.576-.625.69-1.455 1.036-2.492 1.036-.999 0-1.794-.331-2.387-.994s-.889-1.498-.889-2.506c0-1.055.306-1.918.917-2.59.611-.673 1.435-1.009 2.471-1.009.999 0 1.801.332 2.408.994.579.646.868 1.476.868 2.493zm-1.568.035c0-.624-.135-1.158-.406-1.605-.316-.54-.77-.81-1.357-.81-.607 0-1.069.27-1.386.81-.271.447-.406.991-.406 1.634 0 .623.135 1.158.406 1.604.326.54.784.81 1.372.81.579 0 1.032-.274 1.358-.823.279-.457.419-.997.419-1.62z"/><path d="m87.903 42.183c-.149-.028-.308-.042-.476-.042-.532 0-.943.2-1.232.602-.252.354-.378.803-.378 1.344v3.57h-1.512v-4.662c0-.784-.015-1.498-.042-2.142h1.316l.056 1.302h.042c.158-.448.41-.808.756-1.078.336-.242.699-.364 1.092-.364.141 0 .266.01.378.028z"/><path d="m94.566 43.933c0 .271-.018.499-.055.686h-4.537c.02.672.238 1.186.658 1.54.383.317.877.476 1.484.476.672 0 1.283-.106 1.834-.321l.238 1.05c-.645.28-1.405.42-2.282.42-1.055 0-1.884-.311-2.485-.931-.602-.621-.902-1.454-.902-2.499 0-1.027.279-1.881.84-2.562.588-.728 1.381-1.092 2.38-1.092.979 0 1.722.364 2.226 1.092.401.577.601 1.291.601 2.141zm-1.441-.393c.01-.448-.089-.835-.294-1.162-.261-.42-.663-.63-1.204-.63-.494 0-.896.206-1.203.616-.253.327-.402.719-.449 1.176z"/></g><g fill-opacity=".17"><path d="m70.516 47.01c0 .804-.279 1.456-.838 1.961-.614.551-1.471.825-2.57.825-1.015 0-1.83-.195-2.444-.588l.35-1.26c.663.392 1.391.588 2.184.588.569 0 1.012-.128 1.33-.385s.476-.6.476-1.029c0-.383-.131-.704-.392-.966-.261-.261-.695-.504-1.302-.728-1.652-.616-2.478-1.517-2.478-2.702 0-.775.292-1.409.875-1.904.583-.494 1.355-.742 2.317-.742.859 0 1.573.149 2.142.448l-.379 1.231c-.534-.289-1.138-.434-1.812-.434-.534 0-.951.131-1.251.392-.253.233-.379.519-.379.854 0 .373.145.682.434.924.252.225.709.467 1.372.729.812.326 1.409.709 1.792 1.147.381.441.573.986.573 1.639z"/><path d="m75.429 43.986h-1.666v3.304c0 .84.294 1.26.882 1.26.271 0 .495-.022.672-.069l.042 1.147c-.299.112-.691.168-1.176.168-.597 0-1.064-.182-1.4-.546-.336-.363-.504-.975-.504-1.834v-3.43h-.994v-1.134h.994v-1.246l1.484-.448v1.694h1.666z"/><path d="m82.863 46.198c0 1.046-.299 1.904-.896 2.576-.625.69-1.455 1.036-2.492 1.036-.999 0-1.794-.331-2.387-.994s-.889-1.498-.889-2.506c0-1.055.306-1.918.917-2.59.611-.673 1.435-1.009 2.471-1.009.999 0 1.801.332 2.408.994.579.646.868 1.476.868 2.493zm-1.568.035c0-.624-.135-1.158-.406-1.605-.316-.54-.77-.81-1.357-.81-.607 0-1.069.27-1.386.81-.271.447-.406.991-.406 1.634 0 .623.135 1.158.406 1.604.326.54.784.81 1.372.81.579 0 1.032-.274 1.358-.823.279-.457.419-.997.419-1.62z"/><path d="m87.903 44.183c-.149-.028-.308-.042-.476-.042-.532 0-.943.2-1.232.602-.252.354-.378.803-.378 1.344v3.57h-1.512v-4.662c0-.784-.015-1.498-.042-2.142h1.316l.056 1.302h.042c.158-.448.41-.808.756-1.078.336-.242.699-.364 1.092-.364.141 0 .266.01.378.028z"/><path d="m94.566 45.933c0 .271-.018.499-.055.686h-4.537c.02.672.238 1.186.658 1.54.383.317.877.476 1.484.476.672 0 1.283-.106 1.834-.321l.238 1.05c-.645.28-1.405.42-2.282.42-1.055 0-1.884-.311-2.485-.931-.602-.621-.902-1.454-.902-2.499 0-1.027.279-1.881.84-2.562.588-.728 1.381-1.092 2.38-1.092.979 0 1.722.364 2.226 1.092.401.577.601 1.291.601 2.141zm-1.441-.393c.01-.448-.089-.835-.294-1.162-.261-.42-.663-.63-1.204-.63-.494 0-.896.206-1.203.616-.253.327-.402.719-.449 1.176z"/></g><path d="m70.516 46.01c0 .804-.279 1.456-.838 1.961-.614.551-1.471.825-2.57.825-1.015 0-1.83-.195-2.444-.588l.35-1.26c.663.392 1.391.588 2.184.588.569 0 1.012-.128 1.33-.385s.476-.6.476-1.029c0-.383-.131-.704-.392-.966-.261-.261-.695-.504-1.302-.728-1.652-.616-2.478-1.517-2.478-2.702 0-.775.292-1.409.875-1.904.583-.494 1.355-.742 2.317-.742.859 0 1.573.149 2.142.448l-.379 1.231c-.534-.289-1.138-.434-1.812-.434-.534 0-.951.131-1.251.392-.253.233-.379.519-.379.854 0 .373.145.682.434.924.252.225.709.467 1.372.729.812.326 1.409.709 1.792 1.147.381.441.573.986.573 1.639z" fill="#fff"/><path d="m75.429 42.986h-1.666v3.304c0 .84.294 1.26.882 1.26.271 0 .495-.022.672-.069l.042 1.147c-.299.112-.691.168-1.176.168-.597 0-1.064-.182-1.4-.546-.336-.363-.504-.975-.504-1.834v-3.43h-.994v-1.134h.994v-1.246l1.484-.448v1.694h1.666z" fill="#fff"/><path d="m82.863 45.198c0 1.046-.299 1.904-.896 2.576-.625.69-1.455 1.036-2.492 1.036-.999 0-1.794-.331-2.387-.994s-.889-1.498-.889-2.506c0-1.055.306-1.918.917-2.59.611-.673 1.435-1.009 2.471-1.009.999 0 1.801.332 2.408.994.579.646.868 1.476.868 2.493zm-1.568.035c0-.624-.135-1.158-.406-1.605-.316-.54-.77-.81-1.357-.81-.607 0-1.069.27-1.386.81-.271.447-.406.991-.406 1.634 0 .623.135 1.158.406 1.604.326.54.784.81 1.372.81.579 0 1.032-.274 1.358-.823.279-.457.419-.997.419-1.62z" fill="#fff"/><path d="m87.903 43.183c-.149-.028-.308-.042-.476-.042-.532 0-.943.2-1.232.602-.252.354-.378.803-.378 1.344v3.57h-1.512v-4.662c0-.784-.015-1.498-.042-2.142h1.316l.056 1.302h.042c.158-.448.41-.808.756-1.078.336-.242.699-.364 1.092-.364.141 0 .266.01.378.028z" fill="#fff"/><path d="m94.566 44.933c0 .271-.018.499-.055.686h-4.537c.02.672.238 1.186.658 1.54.383.317.877.476 1.484.476.672 0 1.283-.106 1.834-.321l.238 1.05c-.645.28-1.405.42-2.282.42-1.055 0-1.884-.311-2.485-.931-.602-.621-.902-1.454-.902-2.499 0-1.027.279-1.881.84-2.562.588-.728 1.381-1.092 2.38-1.092.979 0 1.722.364 2.226 1.092.401.577.601 1.291.601 2.141zm-1.441-.393c.01-.448-.089-.835-.294-1.162-.261-.42-.663-.63-1.204-.63-.494 0-.896.206-1.203.616-.253.327-.402.719-.449 1.176z" fill="#fff"/><path d="m85.559 13.858c-.022-2.604 2.125-3.856 2.227-3.916-1.21-1.771-3.096-2.014-3.77-2.042-1.602-.162-3.125.944-3.938.944s-2.067-.921-3.397-.896c-1.748.024-3.357 1.016-4.257 2.579-1.815 3.148-.464 7.813 1.304 10.369.864 1.25 1.895 2.655 3.249 2.604 1.305-.051 1.797-.843 3.374-.843 1.574 0 2.018.843 3.396.817 1.401-.025 2.292-1.275 3.149-2.529.992-1.45 1.396-2.854 1.424-2.927-.031-.009-2.734-1.045-2.761-4.16z" fill-opacity=".5"/><path d="m82.967 6.21c.719-.871 1.204-2.082 1.07-3.287-1.035.042-2.288.69-3.032 1.561-.666.77-1.249 2.003-1.091 3.184 1.154.088 2.335-.588 3.053-1.458z" fill-opacity=".5"/><path d="m85.559 14.858c-.022-2.604 2.125-3.856 2.227-3.916-1.21-1.771-3.096-2.014-3.77-2.042-1.602-.162-3.125.944-3.938.944s-2.067-.921-3.397-.896c-1.748.024-3.357 1.016-4.257 2.579-1.815 3.148-.464 7.813 1.304 10.369.864 1.25 1.895 2.655 3.249 2.604 1.305-.051 1.797-.843 3.374-.843 1.574 0 2.018.843 3.396.817 1.401-.025 2.292-1.275 3.149-2.529.992-1.45 1.396-2.854 1.424-2.927-.031-.009-2.734-1.045-2.761-4.16z" fill="url(#a)"/><path d="m82.967 7.21c.719-.871 1.204-2.082 1.07-3.287-1.035.042-2.288.69-3.032 1.561-.666.77-1.249 2.003-1.091 3.184 1.154.088 2.335-.588 3.053-1.458z" fill="#f6f7f7"/><path d="m76.975 24.503c1.305-.051 1.797-.843 3.374-.843 1.574 0 2.018.843 3.396.817 1.401-.025 2.292-1.275 3.149-2.529.435-.634.758-1.26.981-1.771-.758-.012-1.603-.021-2.276-.021-1.654 0-2.31-.326-5.421-.326-3.115 0-3.692.418-5.229.533-.705.054-1.466.058-2.084.046.266.546.557 1.048.862 1.487.864 1.252 1.895 2.659 3.248 2.607z" fill="#bfbebe"/></svg>